HIERARCHY
ROOT Hips
{
  OFFSET 13.6774 106.653 -34.4427
  CHANNELS 6 Xposition Yposition Zposition Zrotation Xrotation Yrotation
  JOINT ToSpine
  {
    OFFSET -2.69724 7.43032 -0.144315
    CHANNELS 3 Zrotation Xrotation Yrotation
    JOINT Spine
    {
      OFFSET -0.0310711 10.7595 1.96963
      CHANNELS 3 Zrotation Xrotation Yrotation
      JOINT Spine1
      {
        OFFSET 19.9056 3.91189 0.764692
        CHANNELS 3 Zrotation Xrotation Yrotation
        JOINT Neck
        {
          OFFSET 25.9749 7.03908 -0.130764
          CHANNELS 3 Zrotation Xrotation Yrotation
          JOINT Head
          {
            OFFSET 9.52751 0.295786 -0.907742
            CHANNELS 3 Zrotation Xrotation Yrotation
            End Site
            {
              OFFSET 16.4037 0.713936 2.7358
            }
          }
        }
        JOINT LeftShoulder
        {
          OFFSET 17.7449 4.33886 11.7777
          CHANNELS 3 Zrotation Xrotation Yrotation
          JOINT LeftArm
          {
            OFFSET 0.911315 1.27913 9.80584
            CHANNELS 3 Zrotation Xrotation Yrotation
            JOINT LeftForeArm
            {
              OFFSET 28.6126 1.18197 -3.53199
              CHANNELS 3 Zrotation Xrotation Yrotation
              JOINT LeftHand
              {
                OFFSET 27.5088 0.0218783 0.327423
                CHANNELS 3 Zrotation Xrotation Yrotation
                End Site
                {
                  OFFSET 18.6038 -0.000155887 0.382096
                }
              }
            }
          }
        }
        JOINT RightShoulder
        {
          OFFSET 17.1009 2.89543 -12.2328
          CHANNELS 3 Zrotation Xrotation Yrotation
          JOINT RightArm
          {
            OFFSET 1.4228 0.178766 -10.211
            CHANNELS 3 Zrotation Xrotation Yrotation
            JOINT RightForeArm
            {
              OFFSET 28.733 1.87905 2.64907
              CHANNELS 3 Zrotation Xrotation Yrotation
              JOINT RightHand
              {
                OFFSET 27.4588 0.290562 -0.101845
                CHANNELS 3 Zrotation Xrotation Yrotation
                End Site
                {
                  OFFSET 17.8396 -0.255518 -0.000602873
                }
              }
            }
          }
        }
      }
    }
  }
  JOINT LeftUpLeg
  {
    OFFSET -5.61296 -2.22332 -10.2353
    CHANNELS 3 Zrotation Xrotation Yrotation
    JOINT LeftLeg
    {
      OFFSET 2.56703 -44.7417 -7.93097
      CHANNELS 3 Zrotation Xrotation Yrotation
      JOINT LeftFoot
      {
        OFFSET 3.16933 -46.5642 -3.96578
        CHANNELS 3 Zrotation Xrotation Yrotation
        JOINT LeftToeBase
        {
          OFFSET 0.346054 -6.02161 12.8035
          CHANNELS 3 Zrotation Xrotation Yrotation
          End Site
          {
            OFFSET 0.134235 -1.35082 5.13018
          }
        }
      }
    }
  }
  JOINT RightUpLeg
  {
    OFFSET -5.7928 -1.72406 10.6446
    CHANNELS 3 Zrotation Xrotation Yrotation
    JOINT RightLeg
    {
      OFFSET -2.57161 -44.7178 -7.85259
      CHANNELS 3 Zrotation Xrotation Yrotation
      JOINT RightFoot
      {
        OFFSET -3.10148 -46.5936 -4.03391
        CHANNELS 3 Zrotation Xrotation Yrotation
        JOINT RightToeBase
        {
          OFFSET -0.0828122 -6.13587 12.8035
          CHANNELS 3 Zrotation Xrotation Yrotation
          End Site
          {
            OFFSET -0.131328 -1.35082 5.13018
          }
        }
      }
    }
  }
}
MOTION
Frames: 8
Frame Time: 0.03333333333333333
0.0000 93.1000 0.0000 -1.3033 -71.1535 -89.8206 -70.9691 0.2745 88.0189 96.8645 75.0490 -15.9751 -3.0291 25.4223 2.1594 -151.1341 26.2967 -177.3372 -178.1673 65.5118 -147.7721 -0.6128 -11.5284 -32.9219 -77.6360 35.0815 -94.5306 31.5486 -16.8563 -113.1109 0.4707 -0.1097 0.6049 -2.7295 6.3994 45.2622 -97.4256 -28.3000 63.7871 0.3769 -34.2877 16.1294 -0.4455 1.1586 0.9266 -44.9549 1.9985 88.3246 -4.0969 37.8988 -17.8962 -2.1838 -16.8017 -1.5695 10.4362 -22.8719 19.7728 -52.0474 -9.9142 77.0677 2.1613 25.9594 -8.9138 -10.4250 -12.2799 0.8523 1.9443 5.7151 -9.6358 
0.0000 93.1000 0.0000 0.5603 -70.9109 -88.8006 -70.9282 -0.2971 87.9520 97.0352 75.1202 -15.8977 -2.4052 24.9760 2.7138 -151.3413 26.7886 -179.1527 -176.0367 66.0016 -149.2722 -0.0344 -11.9712 -32.7138 -77.7971 34.9945 -93.6746 32.2605 -15.6474 -113.0103 -1.0717 0.6839 -1.2462 -3.6986 7.2228 44.9733 -97.9947 -28.4203 64.1823 0.2242 -33.7366 16.3315 1.0121 -2.5839 -2.2444 -45.7299 0.7362 89.1370 -3.9928 37.7904 -17.4355 -1.6208 -16.7069 -1.7495 11.6848 -22.7880 17.9704 -53.2267 -11.3189 77.3000 1.3717 25.1738 -8.7786 -9.1173 -11.7291 1.4904 -1.5587 6.3633 -8.9094 
0.0000 93.1000 0.0000 -0.4885 -71.4684 -89.4435 -71.1219 0.3328 87.6799 96.9923 74.9548 -15.9401 -2.6109 25.4851 1.2108 -150.4828 26.2032 179.1931 -176.6371 65.4174 -148.2006 0.1454 -11.1575 -32.1136 -76.4249 35.4115 -93.7439 34.5237 -17.0270 -111.8605 -0.3565 0.3870 -0.4021 -2.2140 6.9595 46.1414 -96.1581 -29.4775 65.5032 -0.8208 -32.1439 16.3084 -0.0196 -0.3029 -0.0030 -44.9973 1.1038 89.3889 -4.4245 36.9026 -18.2918 -1.2571 -16.6245 -2.0369 11.0391 -22.8114 17.8000 -53.3037 -11.1482 78.1570 1.0393 24.7020 -7.9407 -9.1906 -11.3373 0.9539 0.4095 9.2241 -10.0985 
0.0000 93.1000 0.0000 -0.3520 -71.0034 -89.9484 -71.3322 0.6660 87.6937 93.1753 74.9876 -11.7014 -3.0464 25.4951 -0.4889 -150.9648 25.8034 179.8406 -175.6684 65.7414 -148.4193 -0.3298 -10.6872 -31.9945 -76.3324 35.6702 -93.6456 36.7180 -17.1401 -110.6652 1.0893 -0.5728 1.2709 -1.4646 6.5671 45.9707 -95.3402 -30.9478 65.8639 -0.0295 -31.7378 17.1024 -1.2734 3.0114 2.7597 -44.9319 -0.2871 88.5839 -4.8978 37.1666 -18.6664 -1.9895 -16.7601 -1.9149 10.8945 -22.9441 20.0148 -52.8825 -10.9414 78.3912 0.8542 24.7778 -7.9730 -9.9501 -10.8583 0.1571 2.7935 7.6954 -9.3719 
0.0000 93.1000 0.0000 -1.5342 -69.6045 -89.5544 -71.1620 -0.1903 87.9209 91.2942 75.0160 -9.2910 -2.4572 24.8789 0.8751 -150.7089 26.2357 -176.7530 -177.5171 65.7066 -147.7614 -0.5644 -11.0486 -32.4146 -76.6590 36.0605 -92.7530 33.2501 -16.0880 -112.1017 0.1982 -0.0752 0.6560 -3.3133 6.6998 45.2522 -96.2917 -29.9901 66.0298 0.1650 -31.8384 17.4211 -0.1789 0.9366 0.7300 -45.0013 -0.9128 89.2338 -3.9789 37.1925 -18.7658 -1.6459 -15.4932 -1.5244 11.7653 -22.5531 19.9949 -52.6322 -11.8753 78.1991 1.0125 24.1288 -8.1035 -10.1072 -10.8329 0.5752 0.3125 7.9068 -8.0790 
0.0000 93.1000 0.0000 -1.7783 -70.3836 -90.7566 -71.1062 0.0437 87.7237 89.3330 75.1277 -7.8522 -2.1402 24.9775 0.1162 -150.7408 26.1607 -178.1923 -176.4892 65.4392 -149.4262 -0.3144 -10.7794 -31.9457 -77.2520 35.8504 -92.9889 32.5996 -16.0651 -111.7399 -0.0988 0.1147 0.1351 -2.8110 6.7243 45.2359 -95.3144 -30.6308 66.8223 0.1085 -31.9806 17.2705 -0.1099 0.7248 0.7040 -44.9129 -1.1723 89.3418 -3.6889 36.9623 -18.8682 -1.5076 -15.5835 -1.7611 10.6533 -22.1054 18.9366 -52.9807 -12.0808 78.2206 1.1090 23.8012 -9.1460 -9.9646 -10.0885 0.8723 -0.1406 8.0339 -4.7037 
0.0000 93.1000 0.0000 -1.7034 -70.9379 -90.5397 -71.0524 0.5038 87.5822 89.2456 75.1877 -6.9127 -2.0602 25.0780 0.5990 -150.5557 26.3176 -178.7553 -176.4080 65.7003 -149.6608 0.2634 -10.7198 -31.8914 -77.3077 36.9363 -91.9813 31.9667 -15.9096 -111.7785 0.2029 0.5468 0.0360 -2.1819 6.7380 45.1430 -94.1445 -31.6213 67.0177 0.3595 -30.1901 18.2240 -0.3778 0.6762 0.8887 -45.8434 -0.9485 89.4743 -4.1338 36.0060 -17.9870 -1.7747 -16.6974 -1.9612 8.9045 -19.5631 16.7245 -52.9986 -11.9051 78.2675 0.8073 22.9884 -9.5080 -10.2191 -9.7937 0.9691 -0.6327 7.8031 -4.4823 
0.0000 93.1000 0.0000 -0.8093 -70.9814 -89.6140 -70.9261 0.9817 87.6709 90.2026 75.3389 -8.0673 -1.7122 25.1294 0.4793 -150.4709 25.8511 -179.8681 -176.1853 64.8679 -149.1864 0.7793 -10.8554 -31.9681 -77.3491 36.6921 -92.1242 32.8737 -15.8441 -111.7785 0.4379 1.1516 -0.2181 -1.5680 6.7644 44.8373 -93.3994 -31.0281 67.8614 -0.4800 -29.3397 18.1044 -0.2214 0.3054 0.8558 -45.9579 -0.7411 89.2111 -3.9136 35.8564 -18.0481 -1.7550 -16.8923 -2.4842 8.7173 -19.4861 16.6437 -53.8803 -11.2185 78.4871 -0.2146 21.8940 -12.3938 -11.4629 -10.2466 1.2182 -0.9558 6.5199 0.3871 
